{
	"asset":{
		"generator":"Khronos glTF Blender I/O v3.6.27",
		"version":"2.0"
	},
	"extensionsUsed":[
		"KHR_materials_specular",
		"KHR_materials_ior"
	],
	"scene":0,
	"scenes":[
		{
			"name":"Scene",
			"nodes":[
				0
			]
		}
	],
	"nodes":[
		{
			"mesh":0,
			"name":"TQ_ARD-node.001"
		}
	],
	"materials":[
		{
			"doubleSided":true,
			"extensions":{
				"KHR_materials_specular":{
					"specularColorFactor":[
						0,
						0,
						0
					]
				},
				"KHR_materials_ior":{
					"ior":0
				}
			},
			"name":"TQ_ARD_front.004",
			"pbrMetallicRoughness":{
				"baseColorTexture":{
					"index":0
				},
				"metallicFactor":0,
				"roughnessFactor":0.5
			}
		},
		{
			"doubleSided":true,
			"extensions":{
				"KHR_materials_specular":{
					"specularColorFactor":[
						0,
						0,
						0
					]
				},
				"KHR_materials_ior":{
					"ior":0
				}
			},
			"name":"TQ_ARD_back",
			"pbrMetallicRoughness":{
				"baseColorFactor":[
					0.996078372001648,
					0.9019607901573181,
					0.6627451181411743,
					1
				],
				"metallicFactor":0,
				"roughnessFactor":0.5
			}
		},
		{
			"doubleSided":true,
			"extensions":{
				"KHR_materials_specular":{
					"specularColorFactor":[
						0,
						0,
						0
					]
				},
				"KHR_materials_ior":{
					"ior":0
				}
			},
			"name":"TQ_ARD_edge",
			"pbrMetallicRoughness":{
				"baseColorTexture":{
					"index":1
				},
				"metallicFactor":0,
				"roughnessFactor":0.5
			}
		},
		{
			"doubleSided":true,
			"extensions":{
				"KHR_materials_specular":{
					"specularColorFactor":[
						0,
						0,
						0
					]
				},
				"KHR_materials_ior":{
					"ior":0
				}
			},
			"name":"TQ_ARD_front.003",
			"pbrMetallicRoughness":{
				"baseColorTexture":{
					"index":2
				},
				"metallicFactor":0,
				"roughnessFactor":0.5
			}
		}
	],
	"meshes":[
		{
			"name":"TQ_ARD-geom.002",
			"primitives":[
				{
					"attributes":{
						"POSITION":0,
						"NORMAL":1,
						"TEXCOORD_0":2
					},
					"indices":3,
					"material":0
				},
				{
					"attributes":{
						"POSITION":4,
						"NORMAL":5,
						"TEXCOORD_0":6
					},
					"indices":7,
					"material":1
				},
				{
					"attributes":{
						"POSITION":8,
						"NORMAL":9,
						"TEXCOORD_0":10
					},
					"indices":11,
					"material":2
				},
				{
					"attributes":{
						"POSITION":12,
						"NORMAL":13,
						"TEXCOORD_0":14
					},
					"indices":15,
					"material":3
				}
			]
		}
	],
	"textures":[
		{
			"sampler":0,
			"source":0
		},
		{
			"sampler":0,
			"source":1
		},
		{
			"sampler":0,
			"source":2
		}
	],
	"images":[
		{
			"bufferView":4,
			"mimeType":"image/jpeg",
			"name":"1"
		},
		{
			"bufferView":13,
			"mimeType":"image/png",
			"name":"TQ_ARD-I1.png"
		},
		{
			"bufferView":18,
			"mimeType":"image/jpeg",
			"name":"2"
		}
	],
	"accessors":[
		{
			"bufferView":0,
			"componentType":5126,
			"count":1030,
			"max":[
				0.1296113133430481,
				0.31260693073272705,
				0.3871486783027649
			],
			"min":[
				-0.11556223034858704,
				-0.004299551248550415,
				0.2219710350036621
			],
			"type":"VEC3"
		},
		{
			"bufferView":1,
			"componentType":5126,
			"count":1030,
			"type":"VEC3"
		},
		{
			"bufferView":2,
			"componentType":5126,
			"count":1030,
			"type":"VEC2"
		},
		{
			"bufferView":3,
			"componentType":5123,
			"count":2523,
			"type":"SCALAR"
		},
		{
			"bufferView":5,
			"componentType":5126,
			"count":1734,
			"max":[
				0.12770912051200867,
				0.30943384766578674,
				0.3852464556694031
			],
			"min":[
				-0.11356610059738159,
				-0.0024764984846115112,
				-0.22198784351348877
			],
			"type":"VEC3"
		},
		{
			"bufferView":6,
			"componentType":5126,
			"count":1734,
			"type":"VEC3"
		},
		{
			"bufferView":7,
			"componentType":5126,
			"count":1734,
			"type":"VEC2"
		},
		{
			"bufferView":8,
			"componentType":5123,
			"count":5046,
			"type":"SCALAR"
		},
		{
			"bufferView":9,
			"componentType":5126,
			"count":983,
			"max":[
				0.1285756528377533,
				0.31260693073272705,
				0.3871486783027649
			],
			"min":[
				-0.11460879445075989,
				-0.004299551248550415,
				-0.22303055226802826
			],
			"type":"VEC3"
		},
		{
			"bufferView":10,
			"componentType":5126,
			"count":983,
			"type":"VEC3"
		},
		{
			"bufferView":11,
			"componentType":5126,
			"count":983,
			"type":"VEC2"
		},
		{
			"bufferView":12,
			"componentType":5123,
			"count":2196,
			"type":"SCALAR"
		},
		{
			"bufferView":14,
			"componentType":5126,
			"count":992,
			"max":[
				0.09669414162635803,
				0.31260693073272705,
				0.021189585328102112
			],
			"min":[
				-0.06848348677158356,
				-0.004299551248550415,
				-0.2239839881658554
			],
			"type":"VEC3"
		},
		{
			"bufferView":15,
			"componentType":5126,
			"count":992,
			"type":"VEC3"
		},
		{
			"bufferView":16,
			"componentType":5126,
			"count":992,
			"type":"VEC2"
		},
		{
			"bufferView":17,
			"componentType":5123,
			"count":2523,
			"type":"SCALAR"
		}
	],
	"bufferViews":[
		{
			"buffer":0,
			"byteLength":12360,
			"byteOffset":0,
			"target":34962
		},
		{
			"buffer":0,
			"byteLength":12360,
			"byteOffset":12360,
			"target":34962
		},
		{
			"buffer":0,
			"byteLength":8240,
			"byteOffset":24720,
			"target":34962
		},
		{
			"buffer":0,
			"byteLength":5046,
			"byteOffset":32960,
			"target":34963
		},
		{
			"buffer":0,
			"byteLength":456382,
			"byteOffset":38008
		},
		{
			"buffer":0,
			"byteLength":20808,
			"byteOffset":494392,
			"target":34962
		},
		{
			"buffer":0,
			"byteLength":20808,
			"byteOffset":515200,
			"target":34962
		},
		{
			"buffer":0,
			"byteLength":13872,
			"byteOffset":536008,
			"target":34962
		},
		{
			"buffer":0,
			"byteLength":10092,
			"byteOffset":549880,
			"target":34963
		},
		{
			"buffer":0,
			"byteLength":11796,
			"byteOffset":559972,
			"target":34962
		},
		{
			"buffer":0,
			"byteLength":11796,
			"byteOffset":571768,
			"target":34962
		},
		{
			"buffer":0,
			"byteLength":7864,
			"byteOffset":583564,
			"target":34962
		},
		{
			"buffer":0,
			"byteLength":4392,
			"byteOffset":591428,
			"target":34963
		},
		{
			"buffer":0,
			"byteLength":767,
			"byteOffset":595820
		},
		{
			"buffer":0,
			"byteLength":11904,
			"byteOffset":596588,
			"target":34962
		},
		{
			"buffer":0,
			"byteLength":11904,
			"byteOffset":608492,
			"target":34962
		},
		{
			"buffer":0,
			"byteLength":7936,
			"byteOffset":620396,
			"target":34962
		},
		{
			"buffer":0,
			"byteLength":5046,
			"byteOffset":628332,
			"target":34963
		},
		{
			"buffer":0,
			"byteLength":488041,
			"byteOffset":633380
		}
	],
	"samplers":[
		{
			"magFilter":9729,
			"minFilter":9987
		}
	],
	"buffers":[
		{
			"byteLength":1121424,
			"uri":"data:application/octet-stream;base64,"
		}
	]
}
